<?xml version="1.0" encoding="UTF-8" standalone="no"?>
<!DOCTYPE svg PUBLIC "-//W3C//DTD SVG 1.1//EN" "http://www.w3.org/Graphics/SVG/1.1/DTD/svg11.dtd">
<svg width="100%" height="100%" viewBox="0 0 60 60" version="1.1" xmlns="http://www.w3.org/2000/svg" xmlns:xlink="http://www.w3.org/1999/xlink" xml:space="preserve" xmlns:serif="http://www.serif.com/" style="fill-rule:evenodd;clip-rule:evenodd;stroke-linecap:round;stroke-linejoin:round;stroke-miterlimit:1.5;">
    <rect x="-7.018" y="-2.061" width="70.959" height="71.409" style="fill:white;"/>
    <path d="M59.914,14.002C59.914,6.353 53.704,0.143 46.055,0.143L13.833,0.143C6.184,0.143 -0.026,6.353 -0.026,14.002L-0.026,45.977C-0.026,53.626 6.184,59.836 13.833,59.836L46.055,59.836C53.704,59.836 59.914,53.626 59.914,45.977L59.914,14.002Z" style="fill:rgb(0,58,167);"/>
    <g transform="matrix(1,0,0,1,-3.71508,-0.270133)">
        <path d="M38.675,14.823C38.675,11.986 36.371,9.682 33.534,9.682L21.936,9.682C19.099,9.682 16.796,11.986 16.796,14.823L16.796,32.06C16.796,34.897 19.099,37.201 21.936,37.201L33.534,37.201C36.371,37.201 38.675,34.897 38.675,32.06L38.675,14.823Z" style="fill:rgb(0,58,167);stroke:white;stroke-width:4.17px;"/>
    </g>
    <g transform="matrix(1,0,0,1,9.95543,13.3432)">
        <path d="M38.675,14.823C38.675,11.986 36.371,9.682 33.534,9.682L21.936,9.682C19.099,9.682 16.796,11.986 16.796,14.823L16.796,32.06C16.796,34.897 19.099,37.201 21.936,37.201L33.534,37.201C36.371,37.201 38.675,34.897 38.675,32.06L38.675,14.823Z" style="fill:rgb(0,58,167);stroke:white;stroke-width:4.17px;"/>
    </g>
</svg>
